<?xml version="1.0" encoding="UTF-8"?>
<svg id="Layer_2" data-name="Layer 2" xmlns="http://www.w3.org/2000/svg" viewBox="0 0 41.44 41.41">
  <defs>
    <style>
      .cls-1 {
        fill: #fff;
      }
    </style>
  </defs>
  <g id="Layer_1-2" data-name="Layer 1">
    <g id="Nc1JH0">
      <g>
        <path class="cls-1" d="M22.09,0l2.04.27c15.93,2.62,22.95,22.16,12.03,34.22C24.4,47.5,3.25,41.1.28,24.11L.02,22.08c.04-.9-.06-1.85,0-2.75C.64,9.16,9.18.62,19.34,0h2.75ZM19.81,2.85C6.53,3.58-1.48,18.12,5.29,29.7s23.93,11.79,30.83.05c7.19-12.23-2.21-27.67-16.3-26.9Z"/>
        <path class="cls-1" d="M14.57,19.25h15.81c.64,0,1.34.86,1.33,1.49-.02.67-.74,1.42-1.41,1.42h-15.73l5.46,5.5c1.13,1.57-.92,3.24-2.27,1.78-2.28-2.6-5.36-4.94-7.56-7.56-.74-.88-.79-1.4-.04-2.31,2.19-2.66,5.39-5.04,7.69-7.68,1.29-1.33,3.28.33,2.22,1.82l-5.5,5.54Z"/>
      </g>
    </g>
  </g>
</svg>