<?xml version="1.0" encoding="UTF-8"?>
<svg id="Layer_2" data-name="Layer 2" xmlns="http://www.w3.org/2000/svg" viewBox="0 0 22.06 22.06">
  <defs>
    <style>
      .cls-1 {
        fill: #00a651;
      }

      .cls-2 {
        fill: #231f20;
      }

      .cls-3 {
        fill: #2e3192;
      }
    </style>
  </defs>
  <g id="Layer_1-2" data-name="Layer 1">
    <g>
      <path class="cls-2" d="M11.03,17.75c-3.7,0-6.71-3.01-6.71-6.71s3.01-6.71,6.71-6.71,6.71,3.01,6.71,6.71-3.01,6.71-6.71,6.71ZM11.03,4.57c-3.56,0-6.46,2.9-6.46,6.46s2.9,6.46,6.46,6.46,6.46-2.9,6.46-6.46-2.9-6.46-6.46-6.46Z"/>
      <path class="cls-1" d="M11.03,21.29C5.38,21.29.78,16.69.78,11.03S5.38.78,11.03.78s10.26,4.6,10.26,10.26-4.6,10.26-10.26,10.26ZM11.03,1.28C5.65,1.28,1.28,5.65,1.28,11.03s4.38,9.75,9.75,9.75,9.75-4.38,9.75-9.75S16.41,1.28,11.03,1.28Z"/>
      <path class="cls-3" d="M11.03,22.06C4.95,22.06,0,17.12,0,11.03S4.95,0,11.03,0s11.03,4.95,11.03,11.03-4.95,11.03-11.03,11.03ZM11.03.5C5.23.5.5,5.23.5,11.03s4.72,10.53,10.53,10.53,10.53-4.72,10.53-10.53S16.84.5,11.03.5Z"/>
      <g>
        <path class="cls-3" d="M3.73,6.35l.18-.29.56.34c.06.03.1.07.14.12.04.05.06.1.08.16.01.06.02.11,0,.16-.01.07-.04.14-.09.22-.03.05-.06.09-.1.14s-.08.09-.12.11c-.04.02-.09.04-.14.05-.05,0-.1,0-.15,0-.07-.02-.13-.04-.17-.07l-.56-.34.18-.29.57.35c.05.03.1.04.15.03.05-.01.08-.04.11-.09.03-.05.04-.1.03-.14-.01-.05-.04-.08-.09-.12l-.57-.35Z"/>
        <path class="cls-3" d="M4.08,5.83l.36-.43c.08-.09.16-.15.24-.16.08,0,.17.02.25.09.08.07.13.15.14.24,0,.09-.04.19-.12.29l-.12.14.31.26-.22.26-.84-.7ZM4.66,5.86l.05-.06c.04-.05.06-.09.06-.13s-.01-.06-.04-.09c-.03-.02-.06-.03-.09-.03-.03,0-.07.03-.11.08l-.06.07.19.16Z"/>
        <path class="cls-3" d="M4.85,4.93l.67-.61.16.17-.42.38.12.13.39-.36.15.16-.39.36.15.16.43-.39.17.18-.68.62-.74-.81Z"/>
        <path class="cls-3" d="M5.74,4.14l.26-.18.68.27-.34-.5.26-.18.61.91-.26.18-.68-.27.34.5-.26.18-.61-.91Z"/>
        <path class="cls-3" d="M6.88,3.4l.45-.22c.09-.04.17-.06.23-.07.07,0,.13.01.19.04.06.03.11.07.15.12.04.05.08.11.12.18.05.11.08.19.08.26s0,.13-.03.19c-.02.06-.06.11-.1.14-.06.05-.11.09-.17.11l-.45.22-.47-.99ZM7.29,3.48l.26.54.07-.04c.06-.03.11-.06.13-.09.02-.03.03-.06.03-.1,0-.04-.02-.1-.06-.18-.05-.1-.1-.17-.15-.19-.05-.02-.12-.01-.2.02l-.08.04Z"/>
        <path class="cls-3" d="M8.15,3.41c-.05-.17-.04-.32.02-.44.07-.12.18-.21.35-.26.17-.05.32-.05.45.02.12.07.21.18.26.35.04.12.05.23.03.32s-.06.17-.12.24c-.06.07-.16.12-.27.15-.12.04-.22.05-.31.03-.09-.01-.17-.06-.24-.12-.07-.07-.13-.16-.16-.28ZM8.48,3.32c.03.11.07.18.13.21s.11.04.18.02c.07-.02.12-.06.14-.12.02-.06.02-.14-.02-.26-.03-.1-.07-.16-.12-.2-.05-.03-.11-.04-.18-.02-.07.02-.11.06-.14.12s-.02.14,0,.25Z"/>
        <path class="cls-3" d="M9.87,3.16l.32-.05c.01.05.03.09.05.12.04.04.09.06.15.05.05,0,.08-.02.11-.04s.03-.05.03-.08c0-.03-.02-.05-.04-.07-.03-.02-.09-.04-.18-.05-.15-.02-.26-.06-.33-.11-.07-.05-.11-.12-.11-.2,0-.06,0-.11.04-.16.03-.05.07-.1.14-.13s.15-.06.26-.06c.14-.01.25,0,.33.05.08.05.13.12.15.24l-.32.04s-.03-.08-.06-.1c-.03-.02-.07-.03-.11-.02-.04,0-.07.01-.09.03-.02.02-.03.04-.02.06,0,.02.01.03.03.04.02.01.06.02.12.03.15.02.26.04.32.07.07.03.12.06.15.11.03.05.05.1.06.16,0,.07,0,.14-.04.2-.03.06-.08.11-.15.15-.07.04-.15.06-.26.07-.19.02-.32,0-.39-.08-.08-.07-.12-.15-.14-.26Z"/>
        <path class="cls-3" d="M11.05,2.36h.34s-.02,1.1-.02,1.1h-.34s.02-1.1.02-1.1Z"/>
        <path class="cls-3" d="M12.24,3.37l-.38-.05-.08.17-.34-.04.55-1.03.37.05.27,1.14-.35-.05-.03-.19ZM12.2,3.12l-.07-.41-.17.37.24.03Z"/>
        <path class="cls-3" d="M12.7,2.5l.36.1.12.41.31-.3.36.1-.57.5-.12.44-.33-.09.12-.44-.25-.72Z"/>
        <path class="cls-3" d="M14.16,3.93l-.35-.15-.12.15-.32-.13.8-.85.34.14-.04,1.17-.33-.13.02-.19ZM14.19,3.68l.04-.41-.26.32.22.09Z"/>
        <path class="cls-3" d="M15.71,3.71l.16.1c-.13.09-.24.17-.33.26-.08.07-.15.16-.21.26-.12.19-.2.42-.22.69l-.16-.1c0-.17,0-.31.03-.42.03-.11.07-.22.14-.33.07-.11.15-.2.24-.27s.21-.14.36-.19Z"/>
        <path class="cls-3" d="M16.05,3.95l.66.51-.14.19-.39-.31-.12.15.33.26-.14.17-.33-.26-.27.35-.27-.21.67-.86Z"/>
        <path class="cls-3" d="M16.34,5.11l.24.21s-.05.08-.06.11c0,.06.01.11.06.15.03.03.07.05.1.06s.06,0,.08-.03c.02-.02.03-.05.03-.08,0-.03-.03-.09-.08-.17-.08-.13-.12-.24-.13-.32,0-.08.02-.16.08-.22.04-.04.09-.07.15-.08s.12,0,.19.02c.07.03.14.08.22.16.1.1.15.19.17.28.01.09-.01.18-.08.27l-.24-.21s.04-.08.04-.11c0-.04-.02-.07-.06-.1-.03-.03-.05-.04-.08-.05-.03,0-.05,0-.06.02-.01.01-.02.03-.02.05,0,.02.02.06.05.11.08.13.13.23.15.29.02.07.03.13.01.18-.01.05-.04.1-.08.14-.05.05-.11.08-.18.09-.07.01-.14,0-.21-.02-.07-.03-.14-.08-.22-.16-.13-.13-.2-.25-.19-.35,0-.1.04-.19.11-.28Z"/>
        <path class="cls-3" d="M17.38,6.57l-.23-.31-.18.06-.21-.28,1.12-.32.22.3-.63.98-.21-.28.11-.15ZM17.53,6.38l.24-.33-.39.14.14.19Z"/>
        <path class="cls-3" d="M18.31,6.97c-.08.09-.17.17-.28.23-.1.06-.21.1-.33.12s-.26.03-.42.01l-.1-.16c.27-.02.5-.09.7-.2.1-.06.19-.13.27-.2.09-.09.18-.19.27-.32l.1.16c-.06.14-.13.26-.21.35Z"/>
      </g>
      <g>
        <path d="M3.12,11.63v-.24s.06,0,.06,0c.03,0,.06,0,.07-.01,0,0,.01-.02.01-.03,0-.02,0-.03-.02-.03s-.03-.01-.06,0c-.03,0-.06,0-.07.02-.02,0-.04.03-.06.08-.06.12-.12.19-.16.22-.04.03-.11.05-.21.05-.07,0-.12,0-.16-.02-.03-.02-.06-.05-.09-.09s-.04-.1-.04-.16c0-.07,0-.13.03-.18.02-.05.06-.08.1-.1.04-.02.1-.03.17-.03h.06s0,.24,0,.24h-.12s-.06.01-.07.02-.02.02-.01.04c0,.02,0,.03.02.04.01,0,.03.01.06.01.06,0,.1-.01.11-.03.02-.02.05-.06.08-.12.04-.07.07-.11.09-.13s.04-.04.08-.05c.03-.01.08-.02.13-.03.08,0,.13,0,.17.02s.06.05.09.09c.02.04.03.09.04.16,0,.07,0,.12-.03.17-.02.05-.05.08-.08.1-.03.02-.09.03-.17.03h-.04Z"/>
        <path d="M3.48,12.12l-.97.26-.03-.26.18-.03v-.09s-.19,0-.19,0l-.03-.26h1s.04.38.04.38ZM2.83,12.06c.11-.03.25-.06.41-.09-.19,0-.33,0-.42,0v.09Z"/>
        <path d="M3.61,12.85l-1,.06-.08-.38.94-.34.05.27c-.26.08-.48.15-.67.2.19-.02.36-.04.51-.06l.18-.02.05.27Z"/>
        <path d="M3.69,13.11l-.96.25-.07-.25.96-.25.07.25Z"/>
        <path d="M3.89,13.72l-.94.31-.07-.21.38-.27-.43.14-.07-.2.94-.31.07.2-.38.28.42-.14.07.2Z"/>
        <path d="M3.81,14.47l-.1-.24.08-.04c.05-.02.08-.04.09-.05.01-.01.01-.02,0-.04,0-.01-.02-.02-.03-.02-.01,0-.04,0-.09.03l-.44.19s-.07.03-.08.04c-.01.01-.01.02,0,.04,0,.02.02.03.04.03.02,0,.05,0,.09-.03l.11-.05-.02-.05.14-.06.12.28-.49.21-.06-.15.06-.05s-.06-.02-.09-.03c-.02-.02-.04-.04-.06-.08-.02-.04-.02-.08-.02-.12,0-.04.02-.08.04-.11.02-.03.05-.05.08-.07s.08-.04.14-.07l.27-.12c.09-.04.15-.06.2-.07.04,0,.09,0,.14.03.05.03.09.08.12.15.03.07.04.13.03.19,0,.06-.03.1-.06.13-.03.03-.09.06-.16.09l-.04.02Z"/>
        <path d="M4.16,15l-.11-.21.06-.03s.05-.03.05-.04,0-.02,0-.03c0-.01-.02-.02-.03-.02-.01,0-.03,0-.06.02-.03.02-.05.03-.06.05-.01.02-.02.05-.02.09,0,.13-.02.22-.05.27-.02.05-.08.09-.17.14-.06.03-.11.05-.15.05-.04,0-.08-.01-.12-.04-.04-.03-.08-.07-.11-.13-.03-.06-.05-.12-.05-.17,0-.06.01-.1.04-.13.03-.03.08-.07.14-.1l.06-.03.11.21-.11.06s-.05.03-.06.04c0,.01,0,.02,0,.04,0,.02.02.02.04.02.02,0,.04,0,.06-.02.05-.03.08-.05.09-.07,0-.02.02-.07.02-.15,0-.08.01-.13.02-.16s.02-.06.05-.08c.02-.03.06-.05.1-.08.07-.04.12-.05.16-.05s.08.02.12.04c.04.03.07.07.1.12.03.06.05.11.05.17,0,.05,0,.09-.03.12-.02.03-.07.06-.14.1l-.03.02Z"/>
        <path d="M4.82,15.46l-.74.68-.15-.22.14-.11-.05-.08-.16.09-.15-.22.89-.45.21.31ZM4.21,15.7c.09-.07.19-.16.32-.27-.17.08-.3.15-.37.19l.05.07Z"/>
        <path d="M5.26,16.03l-.77.62-.14-.18.27-.39-.35.28-.13-.17.77-.62.13.17-.26.39.35-.28.13.17Z"/>
        <path d="M5.3,16.08l.13.14c.09.09.14.15.16.19.02.04.03.08.03.11,0,.03-.01.06-.03.09-.02.03-.06.07-.13.14l-.25.24c-.06.06-.11.1-.14.11-.03.01-.05.02-.08.02-.03,0-.05-.01-.08-.03-.03-.02-.06-.05-.1-.09l-.22-.24.72-.68ZM5.36,16.38l-.47.45s.05.04.06.03.05-.03.1-.07l.28-.27s.05-.05.06-.06c0-.01,0-.02,0-.03s-.01-.03-.03-.05Z"/>
        <path d="M6.09,17.4l-.2-.17.11-.13s.05-.06.05-.08c0-.01,0-.03-.02-.04-.02-.01-.03-.02-.05,0-.01,0-.04.03-.07.07l-.3.35s-.05.06-.05.08c0,.01,0,.03.02.04.01.01.03.01.04,0s.04-.03.07-.07l.08-.1.2.17-.02.03c-.07.08-.12.13-.16.15-.04.02-.09.03-.15.02s-.12-.03-.17-.08c-.06-.05-.1-.1-.12-.15-.02-.05-.02-.1,0-.15s.06-.11.12-.18l.19-.22c.05-.05.08-.09.11-.12.03-.02.06-.04.1-.05.04,0,.08,0,.13,0,.05.01.09.04.13.07.06.05.1.1.12.15.02.05.02.1,0,.15-.02.04-.05.1-.11.17l-.06.07Z"/>
        <path d="M6.41,17.1l.15.11c.1.07.16.12.19.15.03.03.04.07.04.12s-.02.11-.07.17c-.04.06-.08.1-.11.11s-.07,0-.12-.03c.03.04.05.07.05.1,0,.03,0,.05,0,.07,0,.02-.03.06-.08.12l-.15.21-.2-.14.19-.27s.05-.07.05-.09c0-.02-.01-.03-.04-.05l-.26.36-.21-.15.57-.81ZM6.52,17.39l-.13.18s.04.03.06.03c.01,0,.03-.02.06-.05l.03-.04s.03-.05.02-.06c0-.01-.02-.03-.04-.05Z"/>
        <path d="M6.93,17.47l.37.22-.1.17-.15-.09-.1.16.14.08-.1.16-.14-.08-.11.19.16.1-.1.17-.38-.23.51-.85Z"/>
        <path d="M7.34,17.72l.17.09c.11.06.18.1.22.13.03.03.06.06.06.1,0,.03,0,.07,0,.1,0,.03-.04.09-.08.17l-.16.31c-.04.08-.07.13-.09.15-.02.02-.04.04-.07.04s-.05,0-.08,0c-.03,0-.07-.03-.13-.05l-.29-.15.45-.88ZM7.5,17.98l-.29.58s.06.02.07.01c.01,0,.04-.04.07-.1l.17-.34s.03-.07.03-.08c0-.01,0-.02,0-.03,0,0-.02-.02-.05-.03Z"/>
        <path d="M8.17,18.11l-.39.91-.24-.1.39-.91.24.1Z"/>
        <path d="M8.73,18.31l-.07.19-.14-.05-.27.75-.24-.09.27-.75-.14-.05.07-.19.53.19Z"/>
        <path d="M9.43,18.94l-.25-.06.04-.17s.02-.08.01-.09c0-.01-.01-.02-.03-.03-.02,0-.04,0-.04.01s-.02.04-.03.09l-.11.45s-.02.08-.01.09.01.03.03.03c.02,0,.03,0,.04-.01,0-.01.02-.05.03-.1l.03-.12.25.06v.04c-.03.1-.06.17-.08.21-.02.04-.06.07-.12.09-.06.02-.12.02-.19,0-.07-.02-.13-.05-.17-.08-.04-.04-.06-.08-.07-.13,0-.05,0-.12.03-.22l.07-.28c.02-.07.03-.12.05-.15.01-.03.04-.06.07-.09.03-.03.07-.04.12-.05.05,0,.1,0,.15,0,.07.02.13.05.17.09.04.04.06.08.07.13,0,.05,0,.11-.03.2l-.02.09Z"/>
        <path d="M10.08,19.19c-.01.1-.03.17-.04.21-.01.04-.03.08-.06.11-.03.03-.07.05-.11.06-.04.01-.09.01-.15,0-.05,0-.1-.02-.14-.05-.04-.02-.07-.05-.09-.09-.02-.04-.03-.08-.03-.12,0-.04,0-.11.02-.21l.03-.17c.01-.1.03-.17.04-.21.01-.04.03-.08.06-.11.03-.03.07-.05.11-.06.04-.01.09-.01.15,0,.05,0,.1.02.14.05.04.02.07.05.09.09.02.04.03.08.03.12,0,.04,0,.11-.03.21l-.03.17ZM9.87,18.83s0-.07,0-.09c0-.01-.01-.02-.03-.02-.01,0-.02,0-.03.01,0,0-.02.04-.02.09l-.07.46c0,.06-.01.09,0,.11,0,.01.01.02.03.02.02,0,.03,0,.04-.02s.02-.05.02-.11l.07-.45Z"/>
        <path d="M10.99,19.24c0,.1,0,.17-.02.21,0,.04-.02.08-.05.11-.03.03-.06.06-.1.07-.04.02-.09.02-.15.02-.05,0-.1-.01-.14-.03-.04-.02-.07-.05-.1-.08-.02-.04-.04-.07-.04-.11,0-.04,0-.11,0-.21v-.17c.01-.1.02-.17.02-.21,0-.04.02-.08.05-.11.03-.03.06-.06.1-.07.04-.02.09-.02.15-.02.05,0,.1.01.14.03.04.02.07.05.1.08.02.04.04.07.04.11,0,.04,0,.11,0,.21v.17ZM10.74,18.91s0-.08,0-.09c0-.01-.01-.02-.03-.02-.01,0-.02,0-.03.01,0,.01-.01.04-.01.09l-.02.46c0,.06,0,.09,0,.11,0,.01.01.02.03.02.02,0,.03,0,.03-.02,0-.02,0-.05.01-.11l.02-.45Z"/>
        <path d="M11.07,18.66h.26c.07-.01.12,0,.16,0,.04,0,.07.02.09.04.02.02.03.04.04.07,0,.03.01.07.02.14v.09c0,.06,0,.11-.01.14-.01.03-.03.05-.07.07-.03.02-.08.03-.14.03h-.07s.02.4.02.4h-.26s-.04-.98-.04-.98ZM11.33,18.82v.25s.02,0,.03,0c.02,0,.04,0,.05-.02,0-.01.01-.04.01-.07v-.08s-.01-.06-.02-.07-.03-.01-.07-.01Z"/>
        <path d="M11.67,18.64l.43-.05.02.2-.17.02.02.19.16-.02.02.19-.16.02.02.22.19-.02.02.2-.44.05-.11-.98Z"/>
        <path d="M12.14,18.59l.18-.03c.12-.02.2-.03.25-.03.04,0,.08.02.12.05.03.03.06.09.07.17.01.08.01.13,0,.16-.01.03-.05.05-.1.07.05,0,.09.01.11.03.02.02.04.03.04.05,0,.02.02.06.03.14l.05.26-.24.04-.06-.32c0-.05-.02-.08-.03-.09s-.03-.01-.07,0l.08.44-.25.05-.18-.97ZM12.43,18.71l.04.22s.05-.01.06-.02c.01-.01.01-.04,0-.08v-.05s-.02-.05-.04-.06c-.01,0-.03,0-.06,0Z"/>
        <path d="M13.2,18.35l.4.92-.25.07-.06-.17-.09.02.03.18-.26.07-.13-.99.36-.1ZM13.23,19c-.04-.1-.09-.24-.15-.39.02.19.04.33.06.41l.09-.02Z"/>
        <path d="M13.77,18.16l.06.19-.14.05.26.75-.24.08-.26-.75-.14.05-.06-.19.53-.18Z"/>
        <path d="M14.04,18.05l.38.92-.24.1-.38-.92.24-.1Z"/>
        <path d="M14.66,17.75l.31.95-.35.17-.57-.83.24-.12c.15.23.27.43.36.59-.07-.18-.13-.34-.18-.48l-.06-.17.24-.12Z"/>
        <path d="M14.66,17.75l.37-.21.1.17-.15.09.09.16.14-.08.09.16-.14.08.11.19.16-.09.1.17-.39.22-.5-.86Z"/>
        <path d="M15.87,17.32l-.19.14-.04-.06s-.04-.04-.05-.05c-.01,0-.02,0-.03,0-.01,0-.02.02-.02.04,0,.01,0,.03.02.05.02.03.04.04.05.05.02,0,.05.01.09,0,.13-.01.22,0,.27,0s.1.07.16.15c.04.06.06.1.07.14s0,.08-.03.12-.06.09-.11.12c-.06.04-.11.06-.17.07s-.1,0-.14-.03c-.04-.02-.08-.07-.12-.13l-.04-.05.19-.14.07.1s.04.05.05.05c.01,0,.02,0,.04,0,.01-.01.02-.02.02-.04s0-.03-.02-.06c-.03-.05-.06-.07-.09-.08-.02,0-.07,0-.15,0-.08,0-.13,0-.16,0s-.06-.01-.09-.03c-.03-.02-.06-.05-.09-.09-.04-.06-.07-.11-.07-.15,0-.04,0-.08.03-.12.02-.04.06-.08.11-.12.05-.04.11-.06.16-.07s.09,0,.12.01.07.06.12.12l.02.03Z"/>
        <path d="M16.57,17.09c.06.08.11.13.13.17.02.03.04.07.04.11,0,.04,0,.08-.02.12-.02.04-.05.08-.09.12-.04.03-.08.06-.13.07s-.09.02-.13,0c-.04,0-.08-.03-.11-.06s-.08-.08-.14-.16l-.11-.13c-.06-.08-.11-.13-.13-.17-.02-.03-.04-.07-.04-.11s0-.08.03-.12c.02-.04.05-.08.09-.12.04-.03.08-.06.13-.07s.09-.02.13,0c.04,0,.08.03.11.06.03.03.08.08.14.16l.11.13ZM16.17,17.01s-.05-.06-.06-.06c-.01,0-.02,0-.04,0-.01,0-.01.02-.01.03,0,.01.02.04.05.08l.3.35s.06.07.07.08c.01,0,.02,0,.04,0,.01-.01.02-.02.01-.04,0-.01-.03-.04-.07-.09l-.29-.35Z"/>
        <path d="M16.96,16.5l-.18.18-.12-.12s-.06-.06-.07-.06c-.01,0-.03,0-.04.01-.01.02-.02.03-.01.04s.03.04.06.07l.33.32s.06.05.07.06c.01,0,.03,0,.04-.01.01-.01.02-.03.01-.04,0-.01-.03-.04-.07-.08l-.09-.09.18-.18.03.03c.07.07.12.13.14.17.02.04.02.09.01.15-.01.06-.04.11-.09.16-.05.05-.11.09-.16.1-.05.02-.1.01-.15-.01s-.1-.07-.17-.14l-.2-.2c-.05-.05-.09-.09-.11-.12-.02-.03-.04-.06-.04-.1s0-.08.02-.13c.02-.04.04-.09.08-.13.05-.05.11-.09.16-.1s.1-.01.15,0c.04.02.1.06.16.13l.07.07Z"/>
        <path d="M16.87,15.95l.75.65-.17.19-.75-.65.17-.19Z"/>
        <path d="M16.92,15.89l.26-.34.16.12-.11.14.15.12.1-.13.15.12-.1.13.17.13.12-.15.16.12-.28.35-.78-.61Z"/>
        <path d="M17.5,15.09l.16.11-.09.13.65.45-.15.21-.65-.45-.09.13-.16-.11.32-.46Z"/>
        <path d="M17.8,14.57l.45.48.31.18-.12.21-.31-.18-.64-.16.12-.2c.19.06.31.11.37.14-.08-.07-.19-.15-.3-.26l.12-.2Z"/>
        <path d="M18,14.14l.72.33.07-.14.18.08-.17.38-.9-.41.11-.23Z"/>
        <path d="M18.17,13.72l.92.36-.09.24-.92-.36.09-.24Z"/>
        <path d="M18.44,12.9l.95.29-.07.21-.64-.2.61.28-.05.15-.65-.1.62.19-.07.22-.95-.29.1-.32c.06,0,.13.02.21.03l.25.04-.42-.19.1-.32Z"/>
        <path d="M18.5,12.59l.97.22-.06.25-.97-.22.06-.25Z"/>
        <path d="M18.6,12.01l.2.03-.02.15.78.13-.04.25-.78-.13-.02.15-.2-.03.09-.56Z"/>
        <path d="M18.6,11.98l.04-.43.2.02-.02.17.19.02.02-.16.19.02-.02.16.22.02.02-.19.2.02-.04.44-.99-.09Z"/>
        <path d="M18.65,11.5v-.19c0-.12.01-.21.03-.25.01-.04.03-.08.06-.1.03-.02.06-.04.09-.04.03,0,.1,0,.19,0h.35c.09,0,.15.02.18.02s.05.02.07.05c.02.02.03.05.03.08,0,.03,0,.08,0,.14v.32s-1-.02-1-.02ZM18.83,11.25h.65s0-.05-.02-.05-.06-.01-.12-.02h-.38s-.07,0-.09,0-.02,0-.03.02,0,.03-.01.06Z"/>
      </g>
      <g id="_2M8vCc" data-name="2M8vCc">
        <path d="M12.97,8.28c.54.02.74.44.71.92,0,.07-.03.16-.03.22,0,.09.07.2.07.3,0,.07-.05.16-.03.22,0,.02.3.29.35.34.21.23.46.56.58.85.26.63.05,1.25-.72,1.17-.05,0-.23-.07-.24-.07-.05.01-.08.28-.08.33-.04.75.18,1.64.21,2.4.01.34,0,.47-.32.63-.66.33-2.39.45-3.1.27-.22-.06-.46-.16-.41-.43-.29,0-.61-.02-.89-.11-.22-.07-.28-.12-.34-.35-.08-.37-.07-.79-.11-1.17,0-.03-.19-.05-.24-.07-.58-.22-.92-1.23-1-1.8-.07-.51-.07-1.46.51-1.68.04-.01.21-.05.21-.06-.31-.28-.65-.65-.47-1.1.14-.37.58-.5.94-.48-.15-.21-.36-.33-.46-.58-.25-.65,0-1.5.67-1.78.6-.25,1.27-.18,1.78.23.39-.32.91-.5,1.41-.34.8.26,1.46,1.32,1.02,2.12ZM12.45,9.37c-.23-.62.4-1.02.43-1.6s-.52-1.26-1.07-1.4c-.42-.11-.8.04-1.14.27.04.09.13.14.19.22.11.15.26.49.26.67,0,.08-.03.16-.02.26.02.22.05.28.01.53-.09.54-.4,1.02-1.01.95s-1.52-.63-2.07-.33c-.22.12-.31.36-.24.59.19.58,1.41,1.19,1.84,1.7.27.32.28.71.36,1.1.33-.04.68-.05,1.01-.12.08-.08.09-.2.16-.29.05-.08.13-.1.19-.16.08-.08.25-.43.33-.45.18-.03.12.21.09.31-.03.09-.1.16-.13.24.02.02.23-.07.27-.09.12-.05.57-.34.64-.34.1,0,.2.09.15.19.02.02.32-.2.37.02.03.12-.14.19-.13.21.3.08.06.27-.09.37.2.08.13.18-.01.28-.42.3-.88.42-1.38.47-.18.02-.47.21-.65.3-.23.11-.47.2-.72.28.05.51.02,1.02.03,1.53,0,.04.02.08.02.12,0,.1-.02.24,0,.33.02.1.34.16.43.18.64.11,2.32.03,2.88-.33.15-.1.14-.16.13-.33-.01-.48-.11-1-.16-1.49-.03-.32-.12-1.19.05-1.43.14-.2.29-.05.48-.03.25.03.48-.05.55-.31.11-.39-.24-.9-.48-1.18-.05-.05-.42-.44-.45-.45-.02,0-.03.01-.04.02-.07.07-.14.23-.21.33-.07.1-.36.47-.45.5-.12.05-.18-.03-.17-.15-.13.12-.38.32-.38,0-.31.27-.39-.07-.16-.28-.11.02-.19-.06-.16-.17.02-.08.18-.22.23-.29.06-.08.36-.45.36-.52-.09,0-.19.06-.29.08-.09.01-.33.02-.28-.14.02-.06.36-.15.43-.18Z"/>
      </g>
      <g>
        <polygon class="cls-1" points="3.02 8.58 3.16 9.02 3.62 9.02 3.25 9.29 3.39 9.73 3.02 9.46 2.65 9.73 2.79 9.29 2.42 9.02 2.88 9.02 3.02 8.58"/>
        <polygon class="cls-1" points="19.04 8.58 19.19 9.02 19.65 9.02 19.27 9.29 19.42 9.73 19.04 9.46 18.67 9.73 18.82 9.29 18.44 9.02 18.9 9.02 19.04 8.58"/>
      </g>
    </g>
  </g>
</svg>