<?xml version="1.0" encoding="UTF-8"?>
<svg id="Layer_2" data-name="Layer 2" xmlns="http://www.w3.org/2000/svg" viewBox="0 0 81.26 70.42">
  <defs>
    <style>
      .cls-1 {
        fill: #00a651;
      }

      .cls-2 {
        fill: #231f20;
      }

      .cls-3 {
        fill: #fff;
      }

      .cls-4 {
        fill: #2e3192;
      }
    </style>
  </defs>
  <g id="Layer_1-2" data-name="Layer 1">
    <g>
      <path class="cls-2" d="M40.63,55.54c-12.19,0-22.11-9.92-22.11-22.11s9.92-22.11,22.11-22.11,22.11,9.92,22.11,22.11-9.92,22.11-22.11,22.11ZM40.63,12.32c-11.64,0-21.11,9.47-21.11,21.11s9.47,21.11,21.11,21.11,21.11-9.47,21.11-21.11-9.47-21.11-21.11-21.11Z"/>
      <path class="cls-1" d="M40.63,63.75c-16.72,0-30.32-13.6-30.32-30.32S23.91,3.11,40.63,3.11s30.32,13.6,30.32,30.32-13.6,30.32-30.32,30.32ZM40.63,5.11c-15.62,0-28.32,12.71-28.32,28.32s12.71,28.32,28.32,28.32,28.32-12.71,28.32-28.32S56.25,5.11,40.63,5.11Z"/>
      <path class="cls-4" d="M40.63,66.87c-18.44,0-33.43-15-33.43-33.43S22.19,0,40.63,0s33.43,15,33.43,33.43-15,33.43-33.43,33.43ZM40.63,2c-17.33,0-31.43,14.1-31.43,31.43s14.1,31.43,31.43,31.43,31.43-14.1,31.43-31.43S57.96,2,40.63,2Z"/>
      <path class="cls-4" d="M77.82,60.36l3.05-4.61c.9-1.35-.07-3.16-1.7-3.16H2.08c-1.62,0-2.59,1.81-1.7,3.16l3.05,4.61c.45.68.45,1.57,0,2.25l-3.09,4.65c-.9,1.35.07,3.16,1.69,3.16h77.18c1.62,0,2.59-1.81,1.69-3.16l-3.09-4.65c-.45-.68-.45-1.57,0-2.25Z"/>
      <g id="_2M8vCc" data-name="2M8vCc">
        <path d="M46.67,24.86c1.68.05,2.29,1.36,2.21,2.88-.01.2-.11.5-.1.7,0,.28.21.64.21.92,0,.21-.15.51-.1.69.02.07.94.89,1.1,1.06.66.72,1.44,1.75,1.81,2.66.81,1.96.16,3.91-2.24,3.64-.15-.02-.7-.21-.75-.2-.17.04-.24.87-.25,1.04-.14,2.35.55,5.11.65,7.49.04,1.08,0,1.46-1.01,1.96-2.07,1.03-7.46,1.42-9.67.85-.67-.17-1.44-.49-1.28-1.33-.91-.03-1.89-.06-2.76-.34-.7-.23-.89-.39-1.05-1.11-.26-1.15-.23-2.46-.35-3.64-.03-.08-.58-.16-.75-.22-1.82-.7-2.87-3.85-3.12-5.61-.22-1.58-.22-4.55,1.59-5.23.12-.05.66-.15.66-.2-.95-.87-2.02-2.02-1.48-3.42.44-1.15,1.8-1.56,2.94-1.51-.46-.67-1.13-1.02-1.44-1.82-.78-2.02,0-4.68,2.07-5.55,1.88-.79,3.95-.55,5.54.73,1.23-1,2.84-1.55,4.4-1.05,2.49.8,4.54,4.12,3.17,6.61ZM45.06,28.25c-.71-1.92,1.25-3.18,1.35-4.98s-1.61-3.93-3.33-4.38c-1.32-.34-2.49.12-3.57.85.14.27.4.44.58.68.35.46.8,1.53.81,2.1,0,.25-.08.51-.05.8.08.69.16.89.04,1.65-.27,1.67-1.26,3.18-3.13,2.95s-4.73-1.95-6.46-1.01c-.68.37-.98,1.12-.74,1.85.59,1.8,4.4,3.72,5.74,5.31.85,1,.88,2.21,1.11,3.44,1.04-.11,2.12-.14,3.14-.38.26-.24.3-.63.49-.91.17-.24.41-.32.58-.49.25-.25.77-1.35,1.03-1.4.56-.09.38.65.27.97-.1.27-.3.49-.4.75.06.06.7-.22.83-.28.39-.17,1.79-1.05,2.01-1.07.32-.03.63.28.45.59.06.05,1-.63,1.16.05.09.38-.44.6-.41.65.94.25.18.85-.27,1.16.64.25.4.57-.04.88-1.32.92-2.73,1.32-4.3,1.47-.57.05-1.47.66-2.04.92-.72.33-1.48.62-2.24.86.15,1.58.05,3.18.1,4.77,0,.13.05.25.06.37.01.3-.05.76,0,1.03.06.32,1.05.5,1.33.55,2.01.34,7.23.08,8.97-1.02.47-.3.43-.51.42-1.04-.04-1.5-.36-3.12-.49-4.63-.08-.99-.38-3.71.16-4.47.45-.64.91-.15,1.49-.09.79.09,1.49-.14,1.72-.96.34-1.21-.73-2.79-1.51-3.67-.15-.17-1.31-1.38-1.41-1.4-.06-.01-.09.04-.13.08-.21.23-.45.73-.66,1.02-.23.31-1.11,1.46-1.39,1.57-.38.15-.55-.1-.54-.46-.39.38-1.2,1.01-1.19,0-.97.86-1.21-.21-.48-.86-.35.07-.61-.19-.51-.54.06-.24.55-.67.73-.89.2-.25,1.13-1.39,1.13-1.61-.3,0-.58.2-.9.24-.29.03-1.04.06-.88-.44.06-.19,1.11-.48,1.34-.58Z"/>
      </g>
      <g>
        <path class="cls-3" d="M12.91,56.94h1.2v2.32c0,.23-.04.45-.11.65s-.18.38-.34.54-.31.26-.48.32c-.23.09-.51.13-.84.13-.19,0-.4-.01-.62-.04-.22-.03-.41-.08-.56-.16s-.29-.19-.41-.33c-.12-.15-.21-.29-.26-.45-.07-.25-.11-.47-.11-.66v-2.32h1.2v2.37c0,.21.06.38.18.5.12.12.28.18.49.18s.37-.06.49-.18c.12-.12.18-.28.18-.5v-2.37Z"/>
        <path class="cls-3" d="M14.9,56.94h2c.44,0,.76.1.98.31.22.21.32.5.32.88s-.12.7-.35.92c-.24.22-.6.33-1.08.33h-.66v1.44h-1.21v-3.89ZM16.11,58.59h.29c.23,0,.39-.04.49-.12s.14-.18.14-.31-.04-.23-.12-.31c-.08-.08-.23-.13-.46-.13h-.34v.87Z"/>
        <path class="cls-3" d="M18.82,56.94h3.22v.83h-2.02v.62h1.87v.79h-1.87v.77h2.07v.88h-3.28v-3.89Z"/>
        <path class="cls-3" d="M22.76,56.94h1.12l1.46,2.15v-2.15h1.13v3.89h-1.13l-1.46-2.13v2.13h-1.13v-3.89Z"/>
        <path class="cls-3" d="M27.29,56.94h1.79c.35,0,.64.05.85.14.22.1.4.23.54.41.14.18.24.39.31.62.06.24.1.49.1.75,0,.42-.05.74-.14.97s-.23.42-.39.58-.35.26-.54.31c-.26.07-.5.11-.72.11h-1.79v-3.89ZM28.49,57.82v2.12h.29c.25,0,.43-.03.54-.08s.19-.15.25-.29c.06-.14.09-.36.09-.68,0-.41-.07-.69-.2-.85-.13-.15-.36-.23-.67-.23h-.3Z"/>
        <path class="cls-3" d="M31.35,58.88c0-.63.18-1.13.53-1.48.35-.35.85-.53,1.48-.53s1.15.17,1.5.52c.35.35.52.83.52,1.46,0,.45-.08.83-.23,1.12-.15.29-.37.52-.66.68-.29.16-.65.24-1.08.24s-.8-.07-1.09-.21-.52-.36-.7-.66c-.18-.3-.27-.68-.27-1.14ZM32.55,58.89c0,.39.07.67.22.85.15.17.34.26.6.26s.46-.08.6-.25.21-.47.21-.9c0-.37-.07-.63-.22-.8-.15-.17-.35-.25-.6-.25s-.44.09-.58.26c-.15.17-.22.46-.22.85Z"/>
        <path class="cls-3" d="M37.63,59.54l1.14-.07c.02.19.08.33.15.42.12.16.3.24.53.24.17,0,.3-.04.4-.12.09-.08.14-.17.14-.28,0-.1-.04-.19-.13-.27s-.29-.15-.62-.23c-.53-.12-.9-.28-1.13-.47-.23-.2-.34-.45-.34-.75,0-.2.06-.39.17-.57s.29-.32.52-.42c.23-.1.55-.15.96-.15.5,0,.88.09,1.14.28.26.18.42.48.47.88l-1.13.07c-.03-.18-.09-.3-.19-.38-.1-.08-.23-.12-.4-.12-.14,0-.25.03-.32.09-.07.06-.11.13-.11.22,0,.06.03.12.09.17.06.05.19.1.4.14.53.11.9.23,1.13.34.23.12.39.26.5.43.1.17.16.36.16.58,0,.25-.07.48-.21.69-.14.21-.33.37-.58.48-.25.11-.56.16-.94.16-.66,0-1.12-.13-1.37-.38-.25-.25-.4-.58-.43-.97Z"/>
        <path class="cls-3" d="M41.81,56.94h1.2v3.89h-1.2v-3.89Z"/>
        <path class="cls-3" d="M46.26,60.18h-1.36l-.19.64h-1.23l1.46-3.89h1.31l1.46,3.89h-1.26l-.19-.64ZM46.01,59.34l-.43-1.4-.42,1.4h.85Z"/>
        <path class="cls-3" d="M47.24,56.94h1.33l.78,1.31.79-1.31h1.33l-1.51,2.26v1.63h-1.2v-1.63l-1.51-2.26Z"/>
        <path class="cls-3" d="M53.74,60.18h-1.36l-.19.64h-1.23l1.46-3.89h1.31l1.46,3.89h-1.26l-.19-.64ZM53.49,59.34l-.43-1.4-.42,1.4h.85Z"/>
        <path class="cls-3" d="M56.4,56.87h.67c-.23.51-.4.99-.5,1.42-.09.37-.13.76-.13,1.18,0,.81.21,1.64.63,2.49h-.67c-.34-.49-.58-.93-.72-1.32-.14-.39-.21-.81-.21-1.24s.07-.87.22-1.28c.15-.4.38-.82.71-1.27Z"/>
        <path class="cls-3" d="M57.69,56.94h2.97v.84h-1.76v.68h1.51v.78h-1.51v1.59h-1.21v-3.89Z"/>
        <path class="cls-3" d="M61.1,59.54l1.14-.07c.03.19.08.33.15.42.12.16.3.24.53.24.17,0,.3-.04.4-.12.09-.08.14-.17.14-.28,0-.1-.04-.19-.13-.27-.09-.08-.29-.15-.62-.23-.53-.12-.9-.28-1.13-.47-.23-.2-.34-.45-.34-.75,0-.2.06-.39.17-.57s.29-.32.52-.42c.23-.1.55-.15.96-.15.5,0,.88.09,1.14.28.26.18.42.48.47.88l-1.13.07c-.03-.18-.09-.3-.19-.38-.1-.08-.23-.12-.4-.12-.14,0-.25.03-.32.09-.07.06-.11.13-.11.22,0,.06.03.12.09.17.06.05.19.1.4.14.52.11.9.23,1.13.34.23.12.39.26.5.43.1.17.16.36.16.58,0,.25-.07.48-.21.69s-.33.37-.58.48c-.25.11-.56.16-.94.16-.66,0-1.12-.13-1.37-.38-.25-.25-.4-.58-.43-.97Z"/>
        <path class="cls-3" d="M67.62,60.18h-1.36l-.19.64h-1.23l1.46-3.89h1.31l1.46,3.89h-1.26l-.19-.64ZM67.37,59.34l-.43-1.4-.42,1.4h.85Z"/>
        <path class="cls-3" d="M70.66,58.13c.15.4.22.83.22,1.28s-.07.84-.21,1.24c-.14.39-.38.83-.72,1.32h-.67c.42-.85.63-1.69.63-2.49,0-.42-.04-.81-.13-1.18-.1-.44-.27-.91-.5-1.42h.67c.33.44.57.86.71,1.27Z"/>
      </g>
      <g>
        <path class="cls-3" d="M7.54,64.29h-.65v-.2c0-.09,0-.15-.02-.18-.02-.03-.04-.04-.08-.04-.04,0-.07.02-.1.05-.02.03-.03.09-.03.16,0,.09.01.16.04.2.02.04.09.1.2.16.31.18.5.33.59.45.08.12.12.31.12.57,0,.19-.02.33-.07.42-.04.09-.13.17-.26.23s-.28.09-.45.09c-.19,0-.35-.04-.48-.11-.13-.07-.22-.16-.26-.27-.04-.11-.06-.26-.06-.46v-.18h.65v.33c0,.1,0,.16.03.19s.05.04.1.04.08-.02.1-.05c.02-.04.03-.09.03-.16,0-.16-.02-.26-.06-.31-.04-.05-.15-.13-.33-.24-.17-.11-.29-.2-.34-.25-.06-.05-.1-.12-.14-.22-.04-.09-.06-.21-.06-.35,0-.21.03-.35.08-.45s.14-.17.25-.22c.12-.05.26-.08.42-.08.18,0,.33.03.46.09.13.06.21.13.25.22.04.09.06.24.06.45v.11Z"/>
        <path class="cls-3" d="M9.02,63.48l.4,2.68h-.71l-.04-.48h-.25l-.04.48h-.72l.35-2.68h1.01ZM8.65,65.2c-.04-.3-.07-.68-.11-1.12-.07.51-.12.89-.13,1.12h.24Z"/>
        <path class="cls-3" d="M11.11,63.48l-.35,2.68h-1.06l-.4-2.68h.73c.09.74.15,1.36.18,1.87.04-.52.07-.97.11-1.37l.05-.5h.73Z"/>
        <path class="cls-3" d="M11.93,63.48v2.68h-.7v-2.68h.7Z"/>
        <path class="cls-3" d="M13.76,63.48v2.68h-.61l-.36-1.22v1.22h-.58v-2.68h.58l.39,1.21v-1.21h.58Z"/>
        <path class="cls-3" d="M15.64,64.46h-.7v-.24c0-.15,0-.25-.02-.29s-.04-.06-.09-.06c-.04,0-.07.02-.09.05-.02.03-.02.12-.02.25v1.28c0,.12,0,.2.02.24.02.04.05.06.09.06.05,0,.08-.02.1-.06.02-.04.03-.13.03-.25v-.32h-.14v-.41h.81v1.44h-.44l-.06-.19c-.05.08-.11.14-.18.19s-.16.06-.26.06c-.12,0-.23-.03-.33-.08-.1-.06-.18-.13-.23-.21-.05-.08-.09-.17-.1-.26-.01-.09-.02-.23-.02-.41v-.8c0-.26.01-.44.04-.56.03-.12.11-.22.24-.32.13-.1.3-.15.51-.15s.37.04.51.13c.13.08.22.18.26.3s.06.28.06.5v.12Z"/>
        <path class="cls-3" d="M17.38,64.29h-.65v-.2c0-.09,0-.15-.02-.18-.02-.03-.04-.04-.08-.04-.04,0-.07.02-.1.05-.02.03-.03.09-.03.16,0,.09.01.16.04.2.02.04.09.1.2.16.31.18.5.33.59.45.08.12.12.31.12.57,0,.19-.02.33-.07.42-.04.09-.13.17-.26.23s-.28.09-.45.09c-.19,0-.35-.04-.48-.11-.13-.07-.22-.16-.26-.27-.04-.11-.06-.26-.06-.46v-.18h.65v.33c0,.1,0,.16.03.19s.05.04.1.04.08-.02.1-.05c.02-.04.03-.09.03-.16,0-.16-.02-.26-.06-.31-.04-.05-.15-.13-.33-.24-.17-.11-.29-.2-.34-.25-.06-.05-.1-.12-.14-.22-.04-.09-.06-.21-.06-.35,0-.21.03-.35.08-.45s.14-.17.25-.22c.12-.05.26-.08.42-.08.18,0,.33.03.46.09.13.06.21.13.25.22.04.09.06.24.06.45v.11Z"/>
        <path class="cls-3" d="M19.46,63.48l.4,2.68h-.71l-.04-.48h-.25l-.04.48h-.72l.35-2.68h1.01ZM19.09,65.2c-.04-.3-.07-.68-.11-1.12-.07.51-.12.89-.13,1.12h.24Z"/>
        <path class="cls-3" d="M21.53,63.48v2.68h-.61l-.36-1.22v1.22h-.58v-2.68h.58l.39,1.21v-1.21h.58Z"/>
        <path class="cls-3" d="M21.81,63.48h.52c.34,0,.56.02.68.05.12.03.21.08.27.15.06.07.1.15.12.24.02.09.02.26.02.51v.94c0,.24-.01.4-.03.48-.02.08-.06.14-.12.19-.06.05-.13.08-.21.1-.08.02-.21.03-.37.03h-.88v-2.68ZM22.51,63.94v1.76c.1,0,.16-.02.19-.06.02-.04.03-.15.03-.33v-1.04c0-.12,0-.2-.01-.23s-.03-.06-.05-.08c-.03-.02-.08-.02-.16-.02Z"/>
        <path class="cls-3" d="M25.91,64.64h-.7v-.47c0-.14,0-.22-.02-.25-.01-.03-.05-.05-.1-.05-.06,0-.09.02-.11.06-.02.04-.02.13-.02.26v1.24c0,.13,0,.21.02.25.02.04.05.06.1.06s.09-.02.1-.06c.02-.04.02-.13.02-.28v-.34h.7v.1c0,.28-.02.47-.06.59-.04.12-.13.22-.26.3-.13.09-.3.13-.5.13s-.37-.04-.5-.11c-.13-.07-.22-.18-.26-.31s-.06-.33-.06-.59v-.78c0-.19,0-.34.02-.43.01-.1.05-.19.12-.28.07-.09.16-.16.27-.21.12-.05.25-.08.4-.08.21,0,.37.04.51.12.13.08.22.18.26.3s.06.3.06.55v.25Z"/>
        <path class="cls-3" d="M26.16,63.48h.49c.33,0,.55.01.67.04.12.03.21.09.28.19.07.1.11.27.11.5,0,.21-.03.35-.08.42s-.15.11-.31.13c.14.03.23.08.28.14.05.06.08.11.09.16.01.05.02.18.02.4v.71h-.65v-.89c0-.14-.01-.23-.03-.27-.02-.03-.08-.05-.18-.05v1.21h-.7v-2.68ZM26.85,63.94v.6c.08,0,.13-.01.16-.03.03-.02.05-.09.05-.21v-.15c0-.08-.02-.14-.05-.17s-.09-.04-.17-.04Z"/>
        <path class="cls-3" d="M27.98,63.48h1.16v.54h-.46v.51h.44v.51h-.44v.59h.51v.54h-1.21v-2.68Z"/>
        <path class="cls-3" d="M29.39,63.48h.52c.34,0,.56.02.68.05.12.03.21.08.27.15.06.07.1.15.12.24.02.09.02.26.02.51v.94c0,.24-.01.4-.03.48-.02.08-.06.14-.12.19-.06.05-.13.08-.21.1-.08.02-.21.03-.37.03h-.88v-2.68ZM30.08,63.94v1.76c.1,0,.16-.02.19-.06.02-.04.03-.15.03-.33v-1.04c0-.12,0-.2-.01-.23s-.03-.06-.05-.08c-.03-.02-.08-.02-.16-.02Z"/>
        <path class="cls-3" d="M31.96,63.48v2.68h-.7v-2.68h.7Z"/>
        <path class="cls-3" d="M33.64,63.48v.54h-.41v2.14h-.7v-2.14h-.41v-.54h1.52Z"/>
        <path class="cls-3" d="M36.02,64.64h-.7v-.47c0-.14,0-.22-.02-.25-.01-.03-.05-.05-.1-.05-.06,0-.09.02-.11.06-.02.04-.02.13-.02.26v1.24c0,.13,0,.21.02.25.02.04.05.06.1.06s.09-.02.1-.06c.02-.04.02-.13.02-.28v-.34h.7v.1c0,.28-.02.47-.06.59-.04.12-.13.22-.26.3-.13.09-.3.13-.5.13s-.37-.04-.5-.11c-.13-.07-.22-.18-.26-.31s-.06-.33-.06-.59v-.78c0-.19,0-.34.02-.43.01-.1.05-.19.12-.28.07-.09.16-.16.27-.21.12-.05.25-.08.4-.08.21,0,.37.04.51.12.13.08.22.18.26.3s.06.3.06.55v.25Z"/>
        <path class="cls-3" d="M37.86,65.05c0,.27,0,.46-.02.57-.01.11-.05.21-.12.31-.07.09-.16.16-.27.21-.11.05-.25.07-.4.07-.14,0-.27-.02-.39-.07-.11-.05-.21-.12-.27-.21-.07-.09-.11-.2-.12-.31-.01-.11-.02-.3-.02-.58v-.46c0-.27,0-.46.02-.57s.05-.21.12-.31c.07-.09.16-.16.27-.21.11-.05.25-.07.4-.07s.27.02.39.07.21.12.28.21.11.2.12.31.02.3.02.58v.46ZM37.16,64.17c0-.12,0-.2-.02-.24-.01-.03-.04-.05-.09-.05-.04,0-.06.01-.08.04-.02.03-.03.11-.03.25v1.25c0,.16,0,.25.02.29.01.04.04.05.09.05s.08-.02.09-.06c.01-.04.02-.14.02-.3v-1.23Z"/>
        <path class="cls-3" d="M40.31,65.05c0,.27,0,.46-.02.57-.01.11-.05.21-.12.31-.07.09-.16.16-.27.21-.11.05-.25.07-.4.07-.14,0-.27-.02-.39-.07-.11-.05-.21-.12-.27-.21-.07-.09-.11-.2-.12-.31-.01-.11-.02-.3-.02-.58v-.46c0-.27,0-.46.02-.57s.05-.21.12-.31c.07-.09.16-.16.27-.21.11-.05.25-.07.4-.07s.27.02.39.07.21.12.28.21.11.2.12.31.02.3.02.58v.46ZM39.61,64.17c0-.12,0-.2-.02-.24-.01-.03-.04-.05-.09-.05-.04,0-.06.01-.08.04-.02.03-.03.11-.03.25v1.25c0,.16,0,.25.02.29.01.04.04.05.09.05s.08-.02.09-.06c.01-.04.02-.14.02-.3v-1.23Z"/>
        <path class="cls-3" d="M40.57,63.48h.7c.19,0,.34.02.44.04.1.03.18.07.23.13s.09.12.1.2c.02.08.03.2.03.37v.23c0,.17-.02.3-.05.37s-.1.14-.19.18-.22.06-.37.06h-.19v1.08h-.7v-2.68ZM41.26,63.94v.68s.04,0,.05,0c.06,0,.11-.02.13-.05s.04-.1.04-.2v-.22c0-.09-.01-.15-.04-.18-.03-.03-.09-.04-.18-.04Z"/>
        <path class="cls-3" d="M42.27,63.48h1.16v.54h-.46v.51h.44v.51h-.44v.59h.51v.54h-1.21v-2.68Z"/>
        <path class="cls-3" d="M43.67,63.48h.49c.33,0,.55.01.67.04.12.03.21.09.28.19.07.1.11.27.11.5,0,.21-.03.35-.08.42s-.15.11-.31.13c.14.03.23.08.28.14.05.06.08.11.09.16.01.05.02.18.02.4v.71h-.65v-.89c0-.14-.01-.23-.03-.27-.02-.03-.08-.05-.18-.05v1.21h-.7v-2.68ZM44.37,63.94v.6c.08,0,.13-.01.16-.03.03-.02.05-.09.05-.21v-.15c0-.08-.02-.14-.05-.17s-.09-.04-.17-.04Z"/>
        <path class="cls-3" d="M46.7,63.48l.4,2.68h-.71l-.04-.48h-.25l-.04.48h-.72l.35-2.68h1.01ZM46.33,65.2c-.04-.3-.07-.68-.11-1.12-.07.51-.12.89-.13,1.12h.24Z"/>
        <path class="cls-3" d="M48.43,63.48v.54h-.41v2.14h-.7v-2.14h-.41v-.54h1.52Z"/>
        <path class="cls-3" d="M49.29,63.48v2.68h-.7v-2.68h.7Z"/>
        <path class="cls-3" d="M51.22,63.48l-.35,2.68h-1.06l-.4-2.68h.73c.08.74.15,1.36.18,1.87.04-.52.07-.97.11-1.37l.05-.5h.73Z"/>
        <path class="cls-3" d="M51.34,63.48h1.16v.54h-.46v.51h.44v.51h-.44v.59h.51v.54h-1.21v-2.68Z"/>
        <path class="cls-3" d="M54.82,64.29h-.65v-.2c0-.09,0-.15-.03-.18s-.04-.04-.08-.04c-.04,0-.07.02-.1.05-.02.03-.03.09-.03.16,0,.09.01.16.04.2.02.04.09.1.2.16.31.18.5.33.58.45.08.12.12.31.12.57,0,.19-.02.33-.07.42-.04.09-.13.17-.26.23-.13.06-.28.09-.45.09-.19,0-.34-.04-.48-.11-.13-.07-.22-.16-.26-.27-.04-.11-.06-.26-.06-.46v-.18h.65v.33c0,.1,0,.16.03.19s.05.04.1.04.08-.02.1-.05c.02-.04.03-.09.03-.16,0-.16-.02-.26-.06-.31-.04-.05-.15-.13-.33-.24-.17-.11-.29-.2-.34-.25-.06-.05-.1-.12-.14-.22-.04-.09-.06-.21-.06-.35,0-.21.03-.35.08-.45.05-.09.14-.17.25-.22.12-.05.26-.08.42-.08.18,0,.33.03.46.09.13.06.21.13.25.22.04.09.06.24.06.45v.11Z"/>
        <path class="cls-3" d="M56.69,65.05c0,.27,0,.46-.02.57-.01.11-.05.21-.12.31-.07.09-.16.16-.27.21-.11.05-.25.07-.4.07s-.27-.02-.39-.07-.21-.12-.28-.21-.11-.2-.12-.31c-.01-.11-.02-.3-.02-.58v-.46c0-.27,0-.46.02-.57s.05-.21.12-.31c.07-.09.16-.16.27-.21.11-.05.25-.07.4-.07.14,0,.27.02.39.07s.21.12.28.21.11.2.12.31c.01.11.02.3.02.58v.46ZM55.99,64.17c0-.12,0-.2-.02-.24s-.04-.05-.08-.05c-.04,0-.06.01-.08.04-.02.03-.03.11-.03.25v1.25c0,.16,0,.25.02.29.01.04.04.05.09.05s.08-.02.09-.06c.01-.04.02-.14.02-.3v-1.23Z"/>
        <path class="cls-3" d="M58.57,64.64h-.7v-.47c0-.14,0-.22-.02-.25-.01-.03-.05-.05-.1-.05-.06,0-.09.02-.11.06-.02.04-.02.13-.02.26v1.24c0,.13,0,.21.02.25.01.04.05.06.1.06s.09-.02.1-.06c.02-.04.02-.13.02-.28v-.34h.7v.1c0,.28-.02.47-.06.59-.04.12-.13.22-.26.3-.13.09-.3.13-.5.13s-.37-.04-.5-.11c-.13-.07-.22-.18-.26-.31s-.06-.33-.06-.59v-.78c0-.19,0-.34.02-.43.01-.1.05-.19.12-.28s.16-.16.27-.21.25-.08.4-.08c.21,0,.38.04.51.12.13.08.22.18.26.3.04.12.06.3.06.55v.25Z"/>
        <path class="cls-3" d="M59.52,63.48v2.68h-.7v-2.68h.7Z"/>
        <path class="cls-3" d="M59.8,63.48h1.16v.54h-.46v.51h.44v.51h-.44v.59h.51v.54h-1.21v-2.68Z"/>
        <path class="cls-3" d="M62.56,63.48v.54h-.41v2.14h-.7v-2.14h-.41v-.54h1.52Z"/>
        <path class="cls-3" d="M64.29,63.48l-.51,1.71v.97h-.64v-.97l-.49-1.71h.64c.1.52.16.87.17,1.06.04-.29.1-.64.19-1.06h.64Z"/>
        <path class="cls-3" d="M65.7,63.48v2.14h.42v.54h-1.12v-2.68h.7Z"/>
        <path class="cls-3" d="M66.99,63.48v2.68h-.7v-2.68h.7Z"/>
        <path class="cls-3" d="M69.42,63.48v2.68h-.61v-1.81s-.24,1.81-.24,1.81h-.43l-.26-1.77v1.77h-.61v-2.68h.9c.03.16.05.35.08.57l.1.68.16-1.25h.91Z"/>
        <path class="cls-3" d="M70.39,63.48v2.68h-.7v-2.68h.7Z"/>
        <path class="cls-3" d="M72.08,63.48v.54h-.41v2.14h-.7v-2.14h-.41v-.54h1.52Z"/>
        <path class="cls-3" d="M72.24,63.48h1.16v.54h-.46v.51h.44v.51h-.44v.59h.51v.54h-1.21v-2.68Z"/>
        <path class="cls-3" d="M73.64,63.48h.52c.34,0,.56.02.68.05.12.03.21.08.27.15.06.07.1.15.12.24.01.09.02.26.02.51v.94c0,.24-.01.4-.03.48s-.06.14-.12.19c-.06.05-.13.08-.21.1-.08.02-.21.03-.37.03h-.88v-2.68ZM74.34,63.94v1.76c.1,0,.16-.02.19-.06.02-.04.03-.15.03-.33v-1.04c0-.12,0-.2-.01-.23,0-.03-.03-.06-.05-.08-.03-.02-.08-.02-.16-.02Z"/>
      </g>
      <g>
        <circle class="cls-1" cx="7.14" cy="58.87" r="1.39"/>
        <circle class="cls-1" cx="74.12" cy="58.87" r="1.39"/>
      </g>
      <g>
        <polygon points="65.97 31.77 66.53 33.51 68.37 33.51 66.88 34.59 67.45 36.33 65.97 35.26 64.48 36.33 65.05 34.59 63.57 33.51 65.4 33.51 65.97 31.77"/>
        <polygon points="15.29 31.77 15.86 33.51 17.69 33.51 16.21 34.59 16.77 36.33 15.29 35.26 13.81 36.33 14.37 34.59 12.89 33.51 14.72 33.51 15.29 31.77"/>
      </g>
    </g>
  </g>
</svg>